<svg width="963" height="926" xmlns="http://www.w3.org/2000/svg" xmlns:xlink="http://www.w3.org/1999/xlink" xml:space="preserve" overflow="hidden"><g transform="translate(-1718 -1145)"><g><path d="M1765 1506C1765 1307.18 1872.45 1146 2005 1146 2137.55 1146 2245 1307.18 2245 1506 2245 1704.82 2137.55 1866 2005 1866 1872.45 1866 1765 1704.82 1765 1506Z" fill="#F2F2F2" fill-rule="evenodd" fill-opacity="1"/><path d="M2155 1506C2155 1307.18 2262.45 1146 2395 1146 2527.55 1146 2635 1307.18 2635 1506 2635 1704.82 2527.55 1866 2395 1866 2262.45 1866 2155 1704.82 2155 1506Z" fill="#F2F2F2" fill-rule="evenodd" fill-opacity="1"/><path d="M1937 1506C1937 1397.2 1995.87 1309 2068.5 1309 2141.13 1309 2200 1397.2 2200 1506 2200 1614.8 2141.13 1703 2068.5 1703 1995.87 1703 1937 1614.8 1937 1506Z" fill="#262626" fill-rule="evenodd" fill-opacity="1"/><path d="M2342 1506C2342 1397.2 2401.1 1309 2474 1309 2546.9 1309 2606 1397.2 2606 1506 2606 1614.8 2546.9 1703 2474 1703 2401.1 1703 2342 1614.8 2342 1506Z" fill="#262626" fill-rule="evenodd" fill-opacity="1"/><path d="M1723.5 1991.5C1751.54 2028.15 1779.58 2064.8 1808.68 2066.47 1837.78 2068.13 1867.59 2004.83 1898.12 2001.5 1928.64 1998.16 1965.55 2046.48 1991.81 2046.48 2018.08 2046.48 2028.72 2000.66 2055.7 2001.5 2082.67 2002.33 2125.97 2051.47 2153.65 2051.47 2181.33 2051.47 2194.82 2000.66 2221.79 2001.5 2248.77 2002.33 2289.94 2057.31 2315.49 2056.47 2341.04 2055.64 2350.27 1998.16 2375.12 1996.5 2399.96 1994.83 2443.26 2045.64 2464.55 2046.48 2485.85 2047.31 2485.14 2002.33 2502.88 2001.5 2520.63 2000.66 2550.44 2041.48 2571.03 2041.48 2591.61 2041.48 2608.65 2001.5 2626.39 2001.5 2644.14 2001.5 2677.5 2041.48 2677.5 2041.48L2677.5 2041.48" stroke="#FFFFFF" stroke-width="9.16667" stroke-linecap="butt" stroke-linejoin="miter" stroke-miterlimit="8" stroke-opacity="1" fill="none" fill-rule="evenodd"/></g></g></svg>